<?xml version="1.0" encoding="utf-8"?>
<!-- Generator: Adobe Illustrator 19.2.0, SVG Export Plug-In . SVG Version: 6.00 Build 0)  -->
<svg version="1.1" id="Laag_1" xmlns="http://www.w3.org/2000/svg" xmlns:xlink="http://www.w3.org/1999/xlink" x="0px" y="0px"
	 viewBox="0 0 216.4 232" style="enable-background:new 0 0 216.4 232;" xml:space="preserve">
<style type="text/css">
	.st0{fill:#3088D4;}
</style>
<g>
	<g>
		<path class="st0" d="M58.3,114.5c0,0,10.7,1.8,19.4,7.5c8.7,5.7,12,16.1,12,16.1h33.7c0,0,5.1-14.8,13.2-18.5
			c8.1-3.8,20.8-6.3,20.8-6.3s-0.5,0.2-0.2-16.2c11.2-10.4,17-23.4,17-38.8C174.2,26,144.3,0,107.4,0C70.5,0,40.6,26,40.6,58.2
			c0,15.3,6.8,29.2,17.8,39.6C57.9,108.8,58.3,114.5,58.3,114.5z M134.6,52.7c10.2,0,18.5,9.7,18.5,21.6c0,11.9-8.3,21.6-18.5,21.6
			c-10.2,0-18.5-9.7-18.5-21.6C116.1,62.4,124.4,52.7,134.6,52.7z M106.5,98.8l2.1,2.6c5.1,6.6,7.3,15.5,7.4,15.9l-5.4,1.3
			c0-0.1-1.4-5.6-4.4-10.7c-3.5,5.3-3.8,10.2-3.8,10.3l-5.5-0.4c0-0.4,0.7-8.8,7.4-16.5L106.5,98.8z M81.9,52.7
			c10.2,0,18.5,9.7,18.5,21.6c0,11.9-8.3,21.6-18.5,21.6s-18.5-9.7-18.5-21.6C63.3,62.4,71.6,52.7,81.9,52.7z"/>
		<path class="st0" d="M177.6,181.1c-7.6-3.8-17.1-1.1-21.1,5.8c-1,1.7-1.6,3.6-1.8,5.5L123.5,177l30.9-16c0.3,1.7,0.9,3.3,1.8,4.9
			c4.2,6.9,13.7,9.4,21.3,5.5c7.5-3.9,10.2-12.6,6-19.6c-3.1-5.1-9.1-7.8-15-7.3c3.6-4.4,4.2-10.5,1.1-15.6
			c-4.2-6.9-13.7-9.4-21.3-5.5c-7.5,3.9-10.2,12.6-6,19.6c1.3,2.2,3.2,3.9,5.3,5.1L107.3,169l-40.7-20.2c2.1-1.3,3.9-3,5.2-5.2
			c4.1-7,1.2-15.7-6.4-19.5c-7.6-3.8-17.1-1.1-21.1,5.9c-3,5.1-2.2,11.2,1.4,15.6c-6-0.4-11.9,2.4-14.9,7.5
			c-4.1,7-1.2,15.7,6.4,19.5c7.6,3.8,17.1,1.1,21.1-5.8c0.9-1.6,1.5-3.2,1.7-4.9l31.2,15.5l-30.9,15.9c-0.2-1.9-0.8-3.7-1.9-5.5
			c-4.2-6.9-13.7-9.4-21.2-5.5c-7.5,3.9-10.2,12.6-6,19.6c3.1,5.1,9.1,7.8,15,7.3c-3.6,4.4-4.2,10.5-1.1,15.6
			c4.2,6.9,13.7,9.4,21.3,5.5c7.5-3.9,10.2-12.6,6-19.6c-1.2-2-2.8-3.6-4.7-4.8l39.8-20.5l40.2,19.9c-1.9,1.2-3.5,2.9-4.7,4.9
			c-4.1,7-1.2,15.7,6.4,19.5c7.6,3.8,17.1,1.1,21.1-5.9c3-5.2,2.2-11.2-1.4-15.6c6,0.4,11.9-2.4,14.9-7.5
			C188.1,193.6,185.2,184.8,177.6,181.1z"/>
	</g>
</g>
</svg>
