<svg display="none" xmlns="http://www.w3.org/2000/svg">
 <symbol id="mastodon-svg-logo" viewBox="0 0 216.4 232" id=".4851409924198067" xmlns="http://www.w3.org/2000/svg">
 <path class="ast0" d="M58.3 114.5s10.7 1.8 19.4 7.5 12 16.1 12 16.1h33.7s5.1-14.8 13.2-18.5c8.1-3.8 20.8-6.3 20.8-6.3s-.5.2-.2-16.2c11.2-10.4 17-23.4 17-38.8C174.2 26 144.3 0 107.4 0S40.6 26 40.6 58.2c0 15.3 6.8 29.2 17.8 39.6-.5 11-.1 16.7-.1 16.7zm76.3-61.8c10.2 0 18.5 9.7 18.5 21.6 0 11.9-8.3 21.6-18.5 21.6s-18.5-9.7-18.5-21.6c0-11.9 8.3-21.6 18.5-21.6zm-28.1 46.1l2.1 2.6c5.1 6.6 7.3 15.5 7.4 15.9l-5.4 1.3c0-.1-1.4-5.6-4.4-10.7-3.5 5.3-3.8 10.2-3.8 10.3l-5.5-.4c0-.4.7-8.8 7.4-16.5l2.2-2.5zM81.9 52.7c10.2 0 18.5 9.7 18.5 21.6 0 11.9-8.3 21.6-18.5 21.6s-18.5-9.7-18.5-21.6c-.1-11.9 8.2-21.6 18.5-21.6z" fill="#ededed"/>
 <path class="ast0" d="M177.6 181.1c-7.6-3.8-17.1-1.1-21.1 5.8-1 1.7-1.6 3.6-1.8 5.5L123.5 177l30.9-16c.3 1.7.9 3.3 1.8 4.9 4.2 6.9 13.7 9.4 21.3 5.5 7.5-3.9 10.2-12.6 6-19.6-3.1-5.1-9.1-7.8-15-7.3 3.6-4.4 4.2-10.5 1.1-15.6-4.2-6.9-13.7-9.4-21.3-5.5-7.5 3.9-10.2 12.6-6 19.6 1.3 2.2 3.2 3.9 5.3 5.1L107.3 169l-40.7-20.2c2.1-1.3 3.9-3 5.2-5.2 4.1-7 1.2-15.7-6.4-19.5-7.6-3.8-17.1-1.1-21.1 5.9-3 5.1-2.2 11.2 1.4 15.6-6-.4-11.9 2.4-14.9 7.5-4.1 7-1.2 15.7 6.4 19.5 7.6 3.8 17.1 1.1 21.1-5.8.9-1.6 1.5-3.2 1.7-4.9l31.2 15.5-30.9 15.9c-.2-1.9-.8-3.7-1.9-5.5-4.2-6.9-13.7-9.4-21.2-5.5-7.5 3.9-10.2 12.6-6 19.6 3.1 5.1 9.1 7.8 15 7.3-3.6 4.4-4.2 10.5-1.1 15.6 4.2 6.9 13.7 9.4 21.3 5.5 7.5-3.9 10.2-12.6 6-19.6-1.2-2-2.8-3.6-4.7-4.8l39.8-20.5 40.2 19.9c-1.9 1.2-3.5 2.9-4.7 4.9-4.1 7-1.2 15.7 6.4 19.5 7.6 3.8 17.1 1.1 21.1-5.9 3-5.2 2.2-11.2-1.4-15.6 6 .4 11.9-2.4 14.9-7.5 4.1-7.1 1.2-15.9-6.4-19.6z" fill="#ededed"/>
 </symbol>
</svg>
