<svg display="none" xmlns="http://www.w3.org/2000/svg">
 <symbol id="mastodon-svg-logo-full" viewBox="0 0 713.4 175.9" id=".045488033993821286" xmlns="http://www.w3.org/2000/svg">
 <path class="ast0" d="M22.4 87.2s8.1 1.4 14.7 5.7c6.6 4.3 9.2 12.2 9.2 12.2h25.6S75.8 93.8 82 91c6.2-2.9 15.8-4.8 15.8-4.8s-.4.1-.2-12.4c8.6-7.9 13-17.8 13-29.6C110.7 19.8 87.9 0 59.8 0 31.7 0 8.9 19.8 8.9 44.3c0 11.6 5.2 22.2 13.6 30.1-.4 8.5-.1 12.8-.1 12.8zm58.1-47c7.8 0 14.1 7.4 14.1 16.5s-6.3 16.5-14.1 16.5-14.1-7.4-14.1-16.5c0-9.2 6.3-16.5 14.1-16.5zM59.1 75.3l1.6 2c3.9 5 5.6 11.8 5.6 12.1l-4.1 1c0-.1-1.1-4.3-3.3-8.2-2.6 4-2.9 7.8-2.9 7.8l-4.2-.3c0-.3.5-6.7 5.6-12.5l1.7-1.9zM40.3 40.2c7.8 0 14.1 7.4 14.1 16.5s-6.3 16.5-14.1 16.5-14.1-7.4-14.1-16.5c0-9.2 6.3-16.5 14.1-16.5z" fill="#3088d4"/>
 <path class="ast0" d="M113.3 137.9c-5.8-2.9-13-.9-16.1 4.5-.8 1.3-1.2 2.8-1.4 4.2l-23.7-11.8 23.6-12.2c.2 1.3.7 2.5 1.4 3.7 3.2 5.3 10.5 7.2 16.2 4.2 5.7-3 7.8-9.6 4.6-14.9-2.4-3.9-6.9-5.9-11.5-5.5 2.7-3.4 3.2-8 .8-11.9C104 93 96.7 91.1 91 94c-5.7 3-7.8 9.6-4.6 14.9 1 1.6 2.4 3 4 3.9l-30.7 15.9-31-15.4c1.6-1 3-2.3 4-4 3.1-5.3.9-12-4.8-14.8-5.8-2.9-13-.9-16.1 4.5-2.3 3.9-1.7 8.6 1.1 11.9-4.5-.3-9.1 1.8-11.4 5.7-3.1 5.3-.9 12 4.8 14.8 5.8 2.9 13 .9 16.1-4.5.7-1.2 1.1-2.5 1.3-3.7L47.5 135 24 147.1c-.2-1.4-.6-2.8-1.4-4.2-3.2-5.3-10.5-7.2-16.2-4.2-5.7 3-7.8 9.6-4.6 14.9 2.4 3.9 6.9 5.9 11.5 5.6-2.7 3.4-3.2 8-.9 11.9 3.2 5.3 10.5 7.2 16.2 4.2 5.7-3 7.8-9.6 4.6-14.9-.9-1.5-2.2-2.7-3.6-3.6l30.3-15.6 30.6 15.2c-1.4.9-2.7 2.2-3.6 3.7-3.1 5.3-.9 12 4.8 14.8 5.8 2.9 13 .9 16.1-4.5 2.3-3.9 1.7-8.6-1.1-11.9 4.5.3 9.1-1.8 11.4-5.7 3.2-5.3 1-12-4.8-14.9z" fill="#3088d4"/>
 <g>
 <path class="ast1" d="M258.2 97.4c5.9-.1 10.9-1.6 15.2-4.4 4.3-2.8 6.7-5.7 7.2-8.8v-.8c.1-.4.1-.7.1-1 .9-9.5 1.5-16.4 1.6-20.9.2-4.5.3-7.3.3-8.4 0-6.2-.7-11.3-2-15.4s-4.5-6.5-9.5-7.1v-8.8c9.1 0 15.9 1.8 20.3 5.4 4.4 3.5 7.5 8.2 9.4 14.1 2 5.9 3 11.3 3.2 16.3.2 5 .3 8.9.3 11.7 0 4.5-.2 9.1-.5 13.9-.1 4.5-.4 9-.8 13.6-.5 7.4-.7 15.3-.7 23.5 0 9.2-.3 17.5-.9 25-1.3 9.2-5.6 15.9-12.9 20.2-7.4 4.3-15.4 6.4-24.1 6.4h-1.7c-9.3-.3-17.8-2.8-25.4-7.7-7.6-4.9-12.1-12-13.7-21.4v-.5c-.1-1-.2-2.1-.2-3.1 0-5.2 1.6-9.9 4.8-14 3.8-5.1 12.1-8.4 24.8-9.7-4.7 8.6-7.3 17.6-8 26.8v.3c0 6.8 1.7 11.8 5.1 15.1 3.6 3.5 6.6 5.3 9 5.3 2.5.1 3.9.1 4.2.1 4.4 0 8.2-1.4 11.5-4.3 3.5-3 5.3-7.6 5.4-13.8-.1-4.8-.3-9.6-.7-14.3-.4-5.3-.6-10.6-.6-15.9v-3.9c.1-1.4.1-2.5.1-3.5 0-1.7 0-2.8.1-3.4-3.5 1.8-11.2 2.7-23.1 2.7-5.3 0-10.2-.6-14.6-1.7s-8.1-3.2-11.1-6.5c-3.1-3.2-5.3-7.8-6.7-13.7-1.2-6.1-1.8-13.2-1.8-21.4 0-7.5-.4-14.2-1.3-20.2-.9-5.9-3.4-10.1-7.4-12.6v-8.8c8.5 0 15.8 2.1 21.9 6.3 6.1 4.1 9.2 10 9.2 17.7v.6c-.1 1.4-.2 2.8-.3 4.4-.6 6.9-1 14.6-1.1 23.2v2.3c0 3.5.3 6.9.8 10 .5 3.3 1.9 5.9 4.1 7.9 1.9 2 5.5 3.1 10.5 3.2zM408.7 106.8c-9 0-15.6-1.5-19.7-4.5s-6.5-5.6-7.4-7.8c-2.2 2.4-6.1 5-11.7 7.7-5.7 2.8-12.3 4.3-19.6 4.5H349c-10.1-.5-17.9-3.7-23.4-9.4-5.4-5.8-8.4-11.2-8.9-16.1-.5-4.9-.7-8.2-.7-9.8 0-6.6 1.3-13.2 4.1-19.7 3.3-8.2 8.6-15.1 15.9-20.8 7.3-5.6 16.4-8.6 27.3-9h1.5c4.6 0 9.3.6 14.2 1.7 5.6 1.2 10.4 3.6 14.3 7.2 3.8 3.5 5.8 8.5 5.8 14.9v1l-.4 6c-.7 8.4-1 14.5-1.1 18.2v6.5c0 5.9.7 10.8 2 14.5 1.3 3.4 4.4 5.5 9.2 6.1v8.8zm-32.6-55.4c-.4-5.6-1.7-10.3-3.7-14.2-2-3.9-5.1-6-9.1-6.3-4.5 0-8.5 1.6-12.1 4.7-3.6 3.1-6.5 7.2-8.7 12.4-2.2 5.1-3.7 9.8-4.4 14.2-.6 4.4-.9 8-.9 10.8 0 2.6.2 5.2.6 7.7.7 5 2.2 9 4.3 12.1 2.2 3 4.9 4.6 8.2 4.8 3.8 0 7.2-1.1 10.2-3.2 3-2.2 5.6-5.1 7.9-8.7 2.3-3.8 4.1-7.9 5.4-12.5 1.3-4.6 2.1-9.2 2.3-14 .1-1.3.1-2.6.1-3.8 0-1.5 0-2.8-.1-4zM446.5 106.8c-8.9 0-15.4-1.5-19.5-4.4-4.1-3-7-6.7-8.8-11.2-1.8-4.7-2.9-9.6-3.3-14.9-.4-5.3-.6-10.7-.6-16v-1.4c0-6.5-.4-12.3-1.3-17.3-.7-4.9-3.1-8.5-7.2-10.7V22c6.5 0 12.1 1.1 16.9 3.2 4.7 2.1 7.9 4.4 9.5 6.8 2.6-2.4 6.5-4.7 11.8-6.9 5.4-2.2 11.5-3.2 18.2-3.2 7.7 0 14.1 2 19.2 6 5.2 4 8.5 9.3 10 16 .3 1.2.4 2.4.4 3.5 0 3.5-1.1 6.7-3.4 9.6-2.3 2.8-4.6 4.5-7 5-2.3.5-4.6.8-6.8.8h-6.3c1.6-6 2.3-10.8 2.3-14.5 0-1 0-2-.1-3-.4-4.5-1.4-7.9-3-10.4-1.7-2.6-3.8-3.8-6.5-3.8-3.5 0-6.7.9-9.5 2.6-2.8 1.8-5.2 4.3-7.3 7.3-4.5 6.7-7.4 14.5-8.6 23.3-.3 3.6-.4 7-.4 10.1 0 5.5.4 10.2 1.2 14.3 1 5.5 4.4 8.6 10 9.3v8.8zM535.3 106.8c-8.9 0-15.4-1.5-19.5-4.4-4.1-3-7-6.7-8.8-11.2-1.8-4.7-2.9-9.6-3.3-14.9-.4-5.3-.6-10.7-.6-16v-1.4c0-6.5-.4-12.3-1.3-17.3-.7-4.9-3.1-8.5-7.2-10.7V22c6.5 0 12.1 1.1 16.9 3.2 4.7 2.1 7.9 4.4 9.5 6.8 2.6-2.4 6.5-4.7 11.8-6.9 5.4-2.2 11.5-3.2 18.2-3.2 7.7 0 14.1 2 19.2 6 5.2 4 8.5 9.3 10 16 .3 1.2.4 2.4.4 3.5 0 3.5-1.1 6.7-3.4 9.6-2.3 2.8-4.6 4.5-7 5-2.3.5-4.6.8-6.8.8h-6.3c1.6-6 2.3-10.8 2.3-14.5 0-1 0-2-.1-3-.4-4.5-1.4-7.9-3-10.4-1.7-2.6-3.8-3.8-6.5-3.8-3.5 0-6.7.9-9.5 2.6-2.8 1.8-5.2 4.3-7.3 7.3-4.5 6.7-7.4 14.5-8.6 23.3-.3 3.6-.4 7-.4 10.1 0 5.5.4 10.2 1.2 14.3 1 5.5 4.4 8.6 10 9.3v8.8zM573.9 84.3c1.5 0 2.8.5 3.8 1.6 1.1 1.1 1.6 2.4 1.6 3.9s-.5 2.8-1.6 3.9-2.3 1.6-3.8 1.6-2.8-.5-3.9-1.6-1.6-2.4-1.6-3.9.5-2.8 1.6-3.9c1.1-1 2.4-1.6 3.9-1.6zM611.9 95.4c-4.5 0-7.8-.8-9.8-2.3-2-1.5-3.4-3.4-4.2-5.8-.8-2.3-1.2-4.3-1.2-5.8v-2.8c0-2.3.1-4.5.2-6.7.1-2 .2-3.9.2-5.6v-1c-.1-1.8-.3-3.2-.8-4.1-.5-1-1.8-1.4-3.8-1.4v-4.7c4 0 7.5 1 10.4 3 2.9 2 4.4 4.8 4.4 8.4v.3l-.2 2.8c-.3 4-.5 6.8-.5 8.5V81c0 3 .3 5.4 1 7.2.6 1.6 2.1 2.6 4.3 2.9v4.3zm-9.7-53.7c1.5 0 2.8.5 3.9 1.6s1.6 2.4 1.6 3.9-.5 2.8-1.6 3.8c-1.1 1.1-2.4 1.6-3.9 1.6s-2.8-.5-3.9-1.6-1.6-2.4-1.6-3.8c0-1.5.5-2.8 1.6-3.9 1.1-1 2.4-1.6 3.9-1.6zM642.5 56.5c3.5 1.6 5.9 3.9 7.2 6.8 1.3 2.9 1.9 5.8 1.9 8.7 0 .9 0 1.7-.1 2.6-.4 3.8-1.8 7.4-3.9 10.8-2.2 3.4-5.2 6-9.1 7.9-2.9 1.3-6.1 2-9.4 2.1-3 0-5.8-.7-8.5-2.1-4.3-2.7-6.6-5.5-7-8.6-.4-3.1-.6-5.1-.6-6.1 0-3.9 1-7.8 3-11.6 2.5-4.8 6.5-8.3 12-10.5 2.3-.8 4.1-1.3 5.5-1.3h2.3c2.2-.1 4.5.4 6.7 1.3zm-7.2 2.9c-1.6 0-3 .4-4.4 1.2-1.3.9-2.5 2-3.5 3.5-2.1 3.2-3.5 6.9-4.1 11.1-.2 1.5-.3 2.9-.3 4.2 0 2.5.4 4.8 1.1 6.9.4 1.1.9 2 1.5 2.8 1.1 1.2 2.4 1.8 3.8 1.8h.1c1.9-.1 3.6-.7 5.2-2 .9-.7 1.7-1.6 2.4-2.6 2.1-3.2 3.5-6.8 4.1-11 .2-1.5.3-2.9.3-4.2 0-2.6-.4-4.9-1.1-6.9-.4-1.3-1.1-2.4-1.9-3.3-.8-.9-1.9-1.4-3.2-1.5z" fill="#f9f9f9"/>
 </g>
 </symbol>
</svg>
